<svg xmlns="http://www.w3.org/2000/svg" xmlns:xlink="http://www.w3.org/1999/xlink" width="1920" zoomAndPan="magnify" viewBox="0 0 1440 1439.999935" height="1920" preserveAspectRatio="xMidYMid meet" version="1.0"><defs><clipPath id="7ed9ad9177"><path d="M 320 836 L 1121 836 L 1121 1115.425781 L 320 1115.425781 Z M 320 836 " clip-rule="nonzero"/></clipPath></defs><rect x="-144" width="1728" fill="#ffffff" y="-143.999994" height="1727.999922" fill-opacity="1"/><rect x="-144" width="1728" fill="#ffffff" y="-143.999994" height="1727.999922" fill-opacity="1"/><path fill="#f48ca7" d="M 961.675781 533.46875 C 961.675781 653.898438 885.710938 709.792969 812.792969 753.9375 C 759.25 786.328125 707.355469 812.371094 688.554688 853.023438 C 644.09375 757.175781 415.433594 742.375 415.433594 533.46875 C 418.988281 390.875 630.4375 324.691406 688.554688 514.289062 C 709.769531 445.117188 751.371094 409.992188 795.832031 400.210938 C 873.261719 383.125 959.390625 442.894531 961.675781 533.46875 Z M 961.675781 533.46875 " fill-opacity="1" fill-rule="nonzero"/><path fill="#f7b6ad" d="M 541.003906 1028.328125 C 545.195312 1032.328125 549.898438 1035.757812 554.851562 1038.617188 C 520.171875 1038.617188 506.769531 1032.140625 479.519531 1009.910156 C 422.480469 964.558594 366.585938 908.21875 332.035156 877.03125 C 322.125 868.074219 326.316406 851.054688 338.257812 845.210938 C 350.390625 839.300781 365.378906 844.066406 388.820312 851.625 C 377.003906 857.40625 374.144531 873.21875 382.59375 883.382812 C 413.71875 920.921875 481.171875 971.671875 541.003906 1028.328125 Z M 541.003906 1028.328125 " fill-opacity="1" fill-rule="nonzero"/><path fill="#ffd7d2" d="M 538.527344 906.882812 C 536.875 901.546875 538.71875 897.800781 538.71875 897.800781 C 549.199219 850.164062 624.085938 874.363281 650.316406 881.730469 C 694.207031 894.117188 720.3125 887.894531 766.488281 877.921875 C 986.957031 807.289062 981.367188 916.917969 981.367188 916.917969 L 1114.117188 916.917969 L 1114.117188 1108.675781 L 873.070312 1108.675781 C 856.621094 1108.675781 842.328125 1107.660156 823.398438 1104.613281 C 759.058594 1096.800781 617.226562 1062.628906 564.441406 1043.0625 C 561.140625 1041.855469 557.964844 1040.332031 554.851562 1038.617188 C 549.898438 1035.757812 545.195312 1032.328125 541.003906 1028.328125 C 481.171875 971.671875 413.71875 920.921875 382.59375 883.382812 C 374.144531 873.21875 377.003906 857.40625 388.820312 851.625 C 411.113281 840.761719 459.703125 846.289062 538.527344 906.882812 Z M 538.527344 906.882812 " fill-opacity="1" fill-rule="nonzero"/><path fill="#faf6f0" d="M 582.761719 772.347656 C 628.148438 799.21875 667.359375 822.417969 682.800781 855.707031 C 683.839844 857.949219 686.089844 859.386719 688.558594 859.386719 C 691.03125 859.386719 693.28125 857.949219 694.320312 855.707031 C 709.761719 822.417969 748.964844 799.21875 794.359375 772.347656 C 871.730469 726.546875 968.027344 669.554688 968.027344 533.316406 C 966.25 462.519531 911.789062 401.855469 841.335938 392.207031 C 788.179688 384.941406 721.917969 408.746094 688.554688 494.863281 C 655.1875 408.753906 588.933594 384.949219 535.777344 392.214844 C 465.324219 401.855469 410.863281 462.519531 409.082031 533.476562 C 409.082031 669.554688 505.382812 726.546875 582.761719 772.347656 Z M 537.5 404.796875 C 542.769531 404.074219 548.183594 403.699219 553.683594 403.699219 C 601.890625 403.699219 656.953125 432.828125 682.480469 516.167969 C 683.292969 518.835938 685.765625 520.65625 688.554688 520.65625 C 691.34375 520.65625 693.8125 518.835938 694.625 516.167969 C 723.074219 423.3125 788.171875 397.734375 839.617188 404.796875 C 894.328125 412.292969 953.476562 459.988281 955.324219 533.476562 C 955.324219 662.304688 866.371094 714.957031 787.882812 761.410156 C 747.078125 785.566406 708.320312 808.507812 688.554688 839.816406 C 668.792969 808.507812 630.03125 785.566406 589.226562 761.417969 C 510.746094 714.960938 421.785156 662.304688 421.785156 533.632812 C 423.632812 459.988281 482.785156 412.292969 537.5 404.796875 Z M 537.5 404.796875 " fill-opacity="1" fill-rule="nonzero"/><g clip-path="url(#7ed9ad9177)"><path fill="#faf6f0" d="M 1114.117188 910.59375 L 987.347656 910.59375 C 986.199219 900.753906 981.449219 882.003906 962.476562 867.394531 C 926.601562 839.773438 860.003906 841.269531 765.136719 871.695312 L 761.820312 872.414062 C 717.644531 882.003906 693.316406 887.289062 652.058594 875.640625 L 647.828125 874.433594 C 623.296875 867.375 577.628906 854.246094 550.835938 870.195312 C 541.730469 875.621094 535.714844 883.859375 532.9375 894.703125 C 448.707031 832.683594 405.308594 837.9375 388.457031 844.835938 C 365.222656 837.359375 349.507812 832.652344 335.445312 839.519531 C 327.449219 843.425781 321.679688 851.453125 320.40625 860.480469 C 319.242188 868.699219 321.921875 876.441406 327.761719 881.726562 C 337.644531 890.660156 349.0625 901.460938 362.292969 913.960938 C 394.554688 944.449219 434.695312 982.394531 475.492188 1014.816406 C 503.261719 1037.46875 517.910156 1044.726562 553.328125 1044.9375 C 556.222656 1046.488281 559.171875 1047.910156 562.226562 1049.042969 C 616.765625 1069.246094 760.347656 1103.375 822.378906 1110.898438 C 840.722656 1113.835938 855.394531 1115.027344 873.03125 1115.027344 L 1114.117188 1115.027344 C 1117.621094 1115.027344 1120.46875 1112.183594 1120.46875 1108.675781 L 1120.46875 916.945312 C 1120.46875 913.4375 1117.628906 910.59375 1114.117188 910.59375 Z M 371.035156 904.730469 C 357.753906 892.179688 346.289062 881.335938 336.304688 872.304688 C 332.664062 869.007812 332.667969 864.601562 333 862.261719 C 333.691406 857.359375 336.773438 853.015625 341.035156 850.933594 C 349.242188 846.929688 360.496094 849.421875 376.335938 854.324219 C 374.316406 857.195312 372.773438 860.433594 372.003906 864.015625 C 370.207031 872.355469 372.285156 880.878906 377.695312 887.417969 C 396.496094 910.125 427.324219 936.671875 463.007812 967.414062 C 486.667969 987.796875 511.09375 1008.886719 534.761719 1031.167969 C 515.4375 1028.683594 503.726562 1021.4375 483.484375 1004.929688 C 443.050781 972.789062 403.117188 935.054688 371.035156 904.730469 Z M 1107.765625 1102.324219 L 873.050781 1102.324219 C 856.128906 1102.324219 842.035156 1101.175781 824.164062 1098.324219 C 762.5625 1090.839844 620.570312 1057.101562 566.652344 1037.132812 C 558.949219 1034.28125 551.789062 1029.757812 545.386719 1023.703125 C 520.921875 1000.558594 495.691406 978.824219 471.289062 957.800781 C 436.035156 927.433594 405.601562 901.199219 387.472656 879.324219 C 384.5625 875.804688 383.445312 871.207031 384.417969 866.703125 C 385.3125 862.550781 387.929688 859.136719 391.601562 857.339844 C 394.882812 855.742188 401.234375 853.535156 411.328125 853.535156 C 432.847656 853.535156 471.351562 863.558594 533.1875 910.769531 C 533.191406 910.789062 533.199219 910.804688 533.203125 910.824219 C 537.503906 921.132812 549.339844 929.523438 568.730469 935.875 C 596.027344 943.09375 640.339844 959.601562 663.554688 971.195312 C 680.964844 979.890625 701.421875 984.367188 726.105469 984.890625 C 729.546875 984.960938 733.042969 984.996094 736.554688 985.027344 C 751.300781 985.179688 766.550781 985.339844 778.0625 988.332031 C 786.808594 991.210938 791.195312 992.652344 797.453125 1003.265625 C 799.230469 1006.289062 803.121094 1007.292969 806.148438 1005.511719 C 809.171875 1003.734375 810.175781 999.839844 808.398438 996.816406 C 799.714844 982.082031 791.519531 979.386719 782.03125 976.269531 C 781.898438 976.226562 781.257812 976.023438 781.125 975.992188 C 768.230469 972.667969 752.191406 972.503906 736.6875 972.339844 C 733.21875 972.300781 729.769531 972.261719 726.371094 972.191406 C 703.609375 971.714844 684.921875 967.675781 669.226562 959.839844 C 645.394531 947.933594 599.949219 931 572.335938 923.710938 C 552.628906 917.242188 546.808594 910.039062 545.101562 906.324219 C 544.929688 905.945312 544.785156 905.574219 544.664062 905.226562 C 544.625 905.074219 544.574219 904.929688 544.53125 904.777344 C 543.824219 902.273438 544.441406 900.628906 544.429688 900.628906 C 544.664062 900.15625 544.835938 899.667969 544.949219 899.152344 C 546.757812 890.917969 550.816406 885.015625 557.355469 881.128906 C 579.425781 868 623.257812 880.601562 644.328125 886.667969 L 648.613281 887.894531 C 692.929688 900.398438 719.875 894.535156 764.519531 884.851562 L 768.425781 883.96875 C 881.796875 847.660156 932.191406 860.308594 954.5 877.304688 C 975.699219 893.457031 975.027344 915.726562 974.996094 916.632812 C 974.90625 918.375 975.535156 920.078125 976.730469 921.335938 C 977.929688 922.597656 979.59375 923.308594 981.335938 923.308594 L 1107.765625 923.308594 Z M 1107.765625 1102.324219 " fill-opacity="1" fill-rule="nonzero"/></g></svg>