<svg xmlns="http://www.w3.org/2000/svg" xmlns:xlink="http://www.w3.org/1999/xlink" width="1920" zoomAndPan="magnify" viewBox="0 0 1440 1439.999935" height="1920" preserveAspectRatio="xMidYMid meet" version="1.0"><defs><clipPath id="c467837d1e"><path d="M 628 453 L 1125.355469 453 L 1125.355469 848 L 628 848 Z M 628 453 " clip-rule="nonzero"/></clipPath><clipPath id="b3dbd40b24"><path d="M 613 361.226562 L 995 361.226562 L 995 603 L 613 603 Z M 613 361.226562 " clip-rule="nonzero"/></clipPath><clipPath id="0fd397b3ed"><path d="M 314.605469 761 L 949 761 L 949 1078.976562 L 314.605469 1078.976562 Z M 314.605469 761 " clip-rule="nonzero"/></clipPath></defs><rect x="-144" width="1728" fill="#ffffff" y="-143.999994" height="1727.999922" fill-opacity="1"/><rect x="-144" width="1728" fill="#ffffff" y="-143.999994" height="1727.999922" fill-opacity="1"/><g clip-path="url(#c467837d1e)"><path fill="#fec4b9" d="M 911.136719 459 C 852.585938 443.984375 807.511719 463.707031 807.511719 463.707031 C 494.375 661.757812 624.734375 788.210938 943.15625 820.65625 C 952.335938 826.113281 960.667969 830.394531 967.808594 833.171875 C 1033.710938 858.863281 1125.128906 842.601562 1125.128906 842.601562 L 1125.128906 579.101562 C 1125.128906 579.101562 969.6875 474.003906 911.136719 459 Z M 911.136719 459 " fill-opacity="1" fill-rule="nonzero"/></g><g clip-path="url(#b3dbd40b24)"><path fill="#7b8e52" d="M 807.511719 463.707031 L 669.351562 361.226562 L 613.285156 436.875 C 661.074219 493.167969 750.964844 522.53125 855.851562 542.296875 L 855.886719 542.3125 C 881.050781 593.960938 936.234375 600.945312 994.910156 602.730469 Z M 807.511719 463.707031 " fill-opacity="1" fill-rule="nonzero"/></g><path fill="#89a25b" d="M 994.925781 602.730469 L 994.910156 602.730469 L 855.886719 542.3125 L 855.851562 542.296875 L 644.863281 450.601562 L 613.285156 436.875 L 576.757812 421.003906 L 466.941406 673.867188 L 921.183594 871.265625 L 943.15625 820.65625 C 928.402344 811.929688 911.445312 800.226562 893.722656 787.039062 L 558.164062 670.453125 L 636.515625 490.035156 L 944.464844 648.734375 L 1008.796875 669.539062 L 1008.796875 669.523438 L 1031 618.402344 Z M 994.925781 602.730469 " fill-opacity="1" fill-rule="nonzero"/><path fill="#d0e6a6" d="M 706.355469 431.398438 L 855.851562 542.296875 L 644.863281 450.601562 L 660.253906 429.863281 C 677.097656 442.347656 697.730469 443.035156 706.355469 431.398438 Z M 706.355469 431.398438 " fill-opacity="1" fill-rule="nonzero"/><path fill="#d0e6a6" d="M 944.464844 648.734375 L 804.164062 603.367188 C 799.71875 601.929688 795.160156 601.226562 790.6875 601.226562 C 785.703125 601.226562 780.800781 602.078125 776.164062 603.710938 C 771.734375 600.835938 766.933594 598.253906 761.820312 596.03125 C 725.828125 580.390625 687.535156 588.675781 676.296875 614.5625 C 665.054688 640.433594 685.132812 674.082031 721.125 689.738281 C 741.90625 698.757812 763.453125 699.820312 780.097656 694.117188 C 811.53125 721.539062 854.53125 757.902344 893.722656 787.039062 C 878.871094 786.074219 866.0625 791.53125 861.40625 802.238281 L 558.164062 670.453125 C 564.816406 655.15625 552.25 634.957031 530.132812 625.332031 L 584.417969 500.332031 C 606.539062 509.941406 629.867188 505.332031 636.515625 490.035156 L 939.757812 621.820312 C 936.132812 630.167969 938.238281 639.976562 944.464844 648.734375 Z M 944.464844 648.734375 " fill-opacity="1" fill-rule="nonzero"/><path fill="#89a25b" d="M 761.589844 677.824219 C 767.128906 682.742188 773.335938 688.21875 780.097656 694.117188 C 763.453125 699.820312 741.90625 698.757812 721.125 689.738281 C 685.132812 674.082031 665.054688 640.433594 676.296875 614.5625 C 687.535156 588.675781 725.828125 580.390625 761.820312 596.03125 C 766.933594 598.253906 771.734375 600.835938 776.164062 603.710938 C 766.851562 606.996094 758.632812 613.417969 753.226562 622.359375 C 742.265625 640.449219 745.777344 663.785156 761.589844 677.824219 Z M 761.589844 677.824219 " fill-opacity="1" fill-rule="nonzero"/><g clip-path="url(#0fd397b3ed)"><path fill="#fec4b9" d="M 885.894531 957.945312 L 908.164062 952.765625 C 910.679688 952.175781 913.195312 951.898438 915.679688 951.898438 C 929.238281 951.898438 941.785156 960.296875 946.652344 973.519531 C 952.566406 989.535156 945.296875 1007.414062 929.890625 1014.785156 C 883.296875 1037.089844 784.054688 1078.910156 694.871094 1078.910156 C 573.210938 1078.910156 314.832031 958.746094 314.832031 958.746094 L 314.832031 761.984375 L 444.25 832.894531 C 444.25 832.894531 503.191406 802.710938 568.6875 802.710938 C 616.144531 802.710938 692.0625 818.5625 730.273438 827.289062 C 742.265625 830.019531 750.515625 840.691406 750.515625 852.667969 C 750.515625 853.992188 750.414062 855.332031 750.203125 856.671875 C 748.175781 869.777344 736.644531 879.289062 723.394531 878.75 L 632.382812 875.042969 C 632.089844 875.023438 631.796875 875.023438 631.5 875.023438 C 622.253906 875.023438 613.988281 881.007812 611.128906 889.878906 C 607.503906 901.207031 613.742188 913.316406 625.082031 916.878906 C 657.328125 927.007812 719.703125 945.445312 753.863281 947.910156 C 785.214844 950.167969 831.316406 946.082031 858.988281 943.042969 C 859.96875 942.925781 860.949219 942.878906 861.914062 942.878906 C 872.207031 942.878906 881.484375 948.828125 885.894531 957.945312 Z M 885.894531 957.945312 " fill-opacity="1" fill-rule="nonzero"/></g><path fill="#7f9354" d="M 943.15625 820.65625 L 926.671875 858.601562 C 907.867188 844.136719 875.570312 819.265625 843.632812 794.507812 L 861.40625 802.238281 C 866.0625 791.53125 878.871094 786.074219 893.722656 787.039062 C 911.445312 800.226562 928.402344 811.929688 943.15625 820.65625 Z M 943.15625 820.65625 " fill-opacity="1" fill-rule="nonzero"/><path fill="#c4d69a" d="M 893.722656 787.039062 C 878.871094 786.074219 866.0625 791.53125 861.40625 802.238281 L 843.632812 794.507812 C 823.097656 778.589844 802.691406 762.703125 786.128906 749.664062 C 764.269531 732.457031 753.519531 713.660156 748.535156 697.125 C 759.941406 698.382812 770.789062 697.304688 780.097656 694.117188 C 811.53125 721.539062 854.53125 757.902344 893.722656 787.039062 Z M 893.722656 787.039062 " fill-opacity="1" fill-rule="nonzero"/><path fill="#7f9354" d="M 761.589844 677.824219 C 767.128906 682.742188 773.335938 688.21875 780.097656 694.117188 C 770.789062 697.304688 759.941406 698.382812 748.535156 697.125 C 740.695312 671.023438 747.230469 650.515625 747.230469 650.515625 C 748.503906 660.777344 753.390625 670.550781 761.589844 677.824219 Z M 761.589844 677.824219 " fill-opacity="1" fill-rule="nonzero"/><path fill="#f7b6ad" d="M 723.113281 1023.175781 C 690.285156 1023.175781 658.40625 1021.683594 656.445312 1021.589844 C 652.839844 1021.421875 650.058594 1018.355469 650.230469 1014.75 C 650.394531 1011.25 653.285156 1008.523438 656.75 1008.523438 C 656.855469 1008.523438 656.960938 1008.523438 657.066406 1008.53125 C 657.769531 1008.5625 727.839844 1011.84375 767.023438 1008.769531 C 793.265625 1006.730469 840.765625 995.59375 866.742188 989.136719 C 870.238281 988.261719 873.789062 990.402344 874.65625 993.90625 C 875.527344 997.410156 873.394531 1000.953125 869.890625 1001.824219 C 837.679688 1009.832031 793.863281 1019.792969 768.042969 1021.808594 C 755.023438 1022.828125 738.957031 1023.175781 723.113281 1023.175781 Z M 723.113281 1023.175781 " fill-opacity="1" fill-rule="nonzero"/></svg>