<svg xmlns="http://www.w3.org/2000/svg" xmlns:xlink="http://www.w3.org/1999/xlink" width="500" zoomAndPan="magnify" viewBox="0 0 375 225" height="300" preserveAspectRatio="xMidYMid meet" version="1.0"><defs><clipPath id="efd3f73ca5"><path d="M 3.851562 3.460938 L 371 3.460938 L 371 220 L 3.851562 220 Z M 3.851562 3.460938 " clip-rule="nonzero"/></clipPath><clipPath id="aeaf8fc44b"><path d="M 136 212 L 146 212 L 146 221.710938 L 136 221.710938 Z M 136 212 " clip-rule="nonzero"/></clipPath><clipPath id="ab959621fb"><path d="M 195.078125 89.886719 L 198.402344 89.886719 L 198.402344 93.210938 L 195.078125 93.210938 Z M 195.078125 89.886719 " clip-rule="nonzero"/></clipPath><clipPath id="1be8d9b7d9"><path d="M 196.742188 89.886719 C 195.824219 89.886719 195.078125 90.628906 195.078125 91.546875 C 195.078125 92.464844 195.824219 93.210938 196.742188 93.210938 C 197.660156 93.210938 198.402344 92.464844 198.402344 91.546875 C 198.402344 90.628906 197.660156 89.886719 196.742188 89.886719 Z M 196.742188 89.886719 " clip-rule="nonzero"/></clipPath></defs><path fill="#ffffff" d="M 114.03125 52.902344 C 114.101562 53.640625 114.089844 53.246094 114.03125 52.902344 Z M 114.03125 52.902344 " fill-opacity="1" fill-rule="nonzero"/><path fill="#ffffff" d="M 113.332031 50.953125 C 113.335938 50.988281 113.390625 51.105469 113.507812 51.28125 C 113.496094 51.257812 113.488281 51.238281 113.480469 51.21875 C 113.433594 51.128906 113.378906 51.042969 113.332031 50.953125 Z M 113.332031 50.953125 " fill-opacity="1" fill-rule="nonzero"/><g clip-path="url(#efd3f73ca5)"><path fill="#ffffff" d="M 370.828125 127.460938 C 370.507812 124.535156 368.007812 122.761719 365.484375 121.71875 C 362.34375 120.421875 358.847656 119.835938 355.503906 119.378906 C 350.777344 118.726562 346.003906 118.441406 341.238281 118.269531 C 315.332031 117.359375 289.050781 119.488281 263.429688 123.421875 C 263.839844 119.574219 264.050781 115.683594 264.050781 111.757812 C 264.050781 82.835938 252.789062 55.652344 232.339844 35.199219 C 211.890625 14.75 184.703125 3.488281 155.785156 3.488281 C 115.605469 3.488281 79.042969 25.480469 60.167969 60.929688 C 54.609375 64.824219 49.269531 69.011719 44.167969 73.359375 C 30.859375 84.691406 18.078125 97.859375 9.945312 113.5 C 6.636719 119.867188 4.253906 126.800781 4 134.019531 C 3.867188 137.855469 4.402344 141.894531 6.480469 145.191406 C 9.226562 149.558594 14.246094 152.121094 19.039062 153.585938 C 29.726562 156.851562 41.476562 156.8125 52.503906 155.714844 C 56.917969 155.273438 56.761719 148.125 52.039062 148.59375 C 46.644531 149.132812 41.648438 149.289062 36.277344 149.015625 C 30.664062 148.726562 25.003906 148.066406 19.914062 146.132812 C 17.460938 145.203125 16.097656 144.535156 14.273438 142.96875 C 14.121094 142.839844 13.371094 142.082031 13.414062 142.164062 C 13.109375 141.808594 12.820312 141.4375 12.558594 141.046875 C 12.453125 140.890625 11.941406 139.917969 11.992188 140.082031 C 11.765625 139.535156 11.585938 138.976562 11.425781 138.40625 C 11.402344 138.324219 11.382812 138.265625 11.375 138.238281 C 11.371094 138.179688 11.359375 138.082031 11.335938 137.925781 C 11.289062 137.574219 11.234375 137.226562 11.199219 136.875 C 11.113281 136.128906 11.066406 135.378906 11.050781 134.628906 C 11.035156 134.042969 11.050781 133.457031 11.070312 132.871094 C 11.078125 132.753906 11.113281 132.199219 11.128906 132.035156 C 11.167969 131.625 11.21875 131.214844 11.273438 130.804688 C 11.488281 129.222656 11.816406 127.660156 12.234375 126.125 C 12.339844 125.734375 12.457031 125.347656 12.566406 124.960938 C 12.59375 124.855469 12.617188 124.785156 12.628906 124.730469 C 12.640625 124.691406 12.660156 124.644531 12.679688 124.582031 C 12.96875 123.75 13.257812 122.925781 13.578125 122.109375 C 14.917969 118.683594 16.597656 115.40625 18.476562 112.25 C 18.660156 111.9375 18.847656 111.632812 19.039062 111.324219 C 19.097656 111.234375 19.515625 110.5625 19.609375 110.417969 C 20.140625 109.59375 20.683594 108.78125 21.234375 107.976562 C 22.429688 106.234375 23.679688 104.527344 24.972656 102.859375 C 27.589844 99.480469 30.382812 96.230469 33.296875 93.101562 C 34.820312 91.460938 36.378906 89.855469 37.96875 88.277344 C 38.359375 87.886719 38.75 87.5 39.144531 87.117188 C 39.230469 87.035156 39.316406 86.953125 39.394531 86.871094 C 39.476562 86.792969 39.8125 86.46875 39.863281 86.421875 C 40.667969 85.652344 41.476562 84.894531 42.292969 84.140625 C 45.65625 81.046875 49.128906 78.066406 52.691406 75.203125 C 56.394531 72.234375 60.203125 69.386719 64.101562 66.683594 C 64.761719 66.46875 65.351562 66.070312 65.800781 65.511719 C 68.605469 63.609375 71.460938 61.785156 74.367188 60.046875 C 75.144531 59.582031 75.929688 59.121094 76.71875 58.667969 C 76.769531 58.636719 76.804688 58.617188 76.84375 58.59375 C 76.871094 58.578125 76.894531 58.566406 76.929688 58.542969 C 77.101562 58.449219 77.273438 58.351562 77.445312 58.253906 C 77.957031 57.964844 78.476562 57.679688 78.992188 57.398438 C 80.660156 56.484375 82.347656 55.609375 84.054688 54.769531 C 87.242188 53.203125 90.503906 51.773438 93.847656 50.566406 C 94.589844 50.296875 95.335938 50.042969 96.082031 49.796875 C 96.449219 49.679688 96.8125 49.566406 97.175781 49.453125 C 97.3125 49.414062 97.773438 49.28125 98.011719 49.210938 C 98.234375 49.148438 98.628906 49.042969 98.726562 49.019531 C 99.035156 48.941406 99.34375 48.867188 99.65625 48.792969 C 100.382812 48.625 101.113281 48.472656 101.847656 48.34375 C 103.082031 48.128906 104.3125 47.988281 105.558594 47.90625 C 105.855469 47.882812 106.902344 47.914062 105.695312 47.882812 C 105.972656 47.890625 106.253906 47.882812 106.53125 47.890625 C 107.113281 47.910156 107.695312 47.945312 108.273438 48.023438 C 108.722656 48.078125 109.164062 48.1875 109.613281 48.257812 C 109.859375 48.34375 110.113281 48.414062 110.359375 48.507812 C 110.753906 48.652344 111.117188 48.859375 111.5 49.023438 C 111.667969 49.160156 111.859375 49.273438 112.027344 49.40625 C 112.179688 49.527344 112.320312 49.65625 112.464844 49.78125 C 112.472656 49.789062 112.476562 49.792969 112.484375 49.796875 C 112.722656 50.132812 113.007812 50.449219 113.238281 50.792969 C 113.273438 50.839844 113.292969 50.894531 113.324219 50.945312 C 113.320312 50.902344 113.378906 50.980469 113.472656 51.207031 C 113.5 51.261719 113.53125 51.328125 113.570312 51.378906 C 113.539062 51.339844 113.519531 51.304688 113.496094 51.273438 C 113.503906 51.289062 113.511719 51.300781 113.519531 51.324219 C 113.691406 51.78125 113.839844 52.234375 113.976562 52.703125 C 113.992188 52.757812 114.003906 52.828125 114.019531 52.894531 C 114.015625 52.84375 114.003906 52.789062 114 52.726562 C 114.027344 52.992188 114.089844 53.257812 114.125 53.527344 C 114.203125 54.160156 114.238281 54.800781 114.246094 55.4375 C 114.25 55.714844 114.238281 56 114.238281 56.277344 C 114.238281 56.347656 114.238281 56.40625 114.238281 56.453125 C 114.234375 56.476562 114.234375 56.503906 114.230469 56.535156 C 114.148438 57.277344 114.078125 58.015625 113.964844 58.75 C 113.710938 60.359375 113.335938 61.945312 112.890625 63.507812 C 112.769531 63.945312 112.636719 64.382812 112.507812 64.8125 C 112.496094 64.84375 112.488281 64.863281 112.484375 64.890625 C 112.476562 64.917969 112.464844 64.949219 112.449219 64.988281 C 112.386719 65.167969 112.328125 65.355469 112.269531 65.539062 C 111.671875 67.296875 111.015625 69.03125 110.382812 70.777344 C 102.15625 93.390625 93.5625 115.863281 85.695312 138.601562 C 81.824219 149.78125 77.855469 160.949219 74.476562 172.285156 C 73.082031 176.957031 71.765625 181.660156 70.660156 186.40625 C 69.757812 190.273438 68.621094 194.566406 68.953125 198.574219 C 69.25 202.171875 72.066406 204.40625 75.558594 203.003906 C 77.390625 202.265625 78.882812 200.804688 80.207031 199.394531 C 84.011719 195.355469 86.917969 190.386719 89.78125 185.675781 C 98.96875 170.546875 106.945312 154.675781 115.078125 138.976562 C 124.117188 121.523438 133.046875 103.992188 142.789062 86.917969 C 144.855469 83.292969 146.964844 79.695312 149.15625 76.140625 C 149.277344 75.9375 149.40625 75.738281 149.527344 75.539062 C 149.53125 75.53125 149.535156 75.527344 149.539062 75.519531 C 149.777344 75.136719 150.019531 74.757812 150.257812 74.378906 C 150.753906 73.589844 151.261719 72.800781 151.773438 72.019531 C 152.699219 70.597656 153.648438 69.183594 154.625 67.796875 C 156.234375 65.5 157.910156 63.242188 159.765625 61.132812 C 160.125 60.726562 160.488281 60.320312 160.867188 59.925781 C 161.054688 59.730469 161.242188 59.542969 161.429688 59.351562 C 161.433594 59.34375 161.433594 59.34375 161.4375 59.339844 C 161.457031 59.328125 161.464844 59.320312 161.480469 59.304688 C 161.8125 59.011719 162.144531 58.730469 162.484375 58.460938 C 162.425781 58.917969 162.363281 59.375 162.28125 59.832031 C 161.664062 63.335938 160.617188 66.757812 159.566406 70.152344 C 159.523438 70.285156 159.480469 70.421875 159.4375 70.558594 C 159.402344 70.671875 159.351562 70.835938 159.324219 70.910156 C 159.15625 71.429688 158.984375 71.953125 158.816406 72.472656 C 158.441406 73.617188 158.054688 74.757812 157.664062 75.898438 C 156.84375 78.300781 156.003906 80.695312 155.152344 83.082031 C 151.335938 93.804688 147.351562 104.464844 143.699219 115.246094 C 140.242188 125.441406 136.847656 135.785156 134.863281 146.382812 C 134.214844 149.84375 131.140625 162.195312 138.535156 161.222656 C 140.6875 160.9375 142.363281 159.222656 143.757812 157.710938 C 145.449219 155.871094 146.914062 153.820312 148.355469 151.789062 C 157.890625 138.277344 166.105469 123.855469 175.242188 110.082031 C 179.339844 103.902344 183.519531 97.671875 188.40625 92.078125 C 188.867188 91.558594 189.332031 91.042969 189.804688 90.539062 C 190.027344 90.304688 190.25 90.070312 190.480469 89.839844 C 190.554688 89.761719 190.628906 89.691406 190.703125 89.613281 C 191.480469 88.960938 192.234375 88.3125 193.046875 87.707031 C 193 87.726562 192.949219 87.742188 192.894531 87.761719 C 192.996094 87.726562 193.089844 87.671875 193.183594 87.617188 C 193.1875 87.617188 193.1875 87.609375 193.191406 87.609375 C 193.199219 87.605469 193.210938 87.597656 193.21875 87.59375 C 193.222656 87.589844 193.226562 87.589844 193.234375 87.585938 C 193.234375 87.597656 193.238281 87.617188 193.238281 87.632812 C 193.222656 87.636719 193.210938 87.640625 193.199219 87.644531 C 193.21875 87.695312 193.238281 87.746094 193.253906 87.792969 C 193.273438 87.941406 193.304688 88.089844 193.320312 88.234375 C 193.542969 90.101562 193.421875 92 193.332031 93.867188 C 193.332031 93.886719 193.332031 93.902344 193.324219 93.917969 C 193.324219 93.925781 193.324219 93.929688 193.324219 93.941406 C 193.304688 94.222656 193.289062 94.507812 193.269531 94.789062 C 193.226562 95.4375 193.183594 96.085938 193.140625 96.734375 C 193.042969 98.222656 192.945312 99.707031 192.875 101.199219 C 192.75 103.894531 192.714844 106.597656 192.917969 109.285156 C 193.355469 115.082031 194.875 121.105469 198.617188 125.6875 C 203.492188 131.65625 210.804688 134.410156 218.285156 135.347656 C 230.601562 136.894531 242.75 134.121094 254.804688 131.996094 C 245.394531 178.046875 204.566406 212.796875 155.773438 212.796875 C 153.789062 212.796875 152.175781 214.410156 152.175781 216.398438 C 152.175781 218.382812 153.789062 219.996094 155.773438 219.996094 C 184.699219 219.996094 211.882812 208.734375 232.332031 188.285156 C 248.226562 172.390625 258.566406 152.421875 262.386719 130.742188 C 273.640625 128.984375 284.976562 127.695312 296.324219 126.761719 C 309.121094 125.710938 321.976562 125.074219 334.820312 125.261719 C 339.882812 125.339844 344.949219 125.535156 349.984375 126.015625 C 352.03125 126.210938 354.074219 126.457031 356.105469 126.792969 C 356.957031 126.933594 357.804688 127.089844 358.644531 127.265625 C 358.992188 127.34375 359.339844 127.429688 359.6875 127.503906 C 359.707031 127.507812 359.730469 127.511719 359.75 127.515625 C 359.902344 127.558594 360.058594 127.597656 360.203125 127.640625 C 361.203125 127.941406 362.140625 128.40625 363.105469 128.765625 C 362.980469 128.867188 362.851562 128.972656 362.722656 129.070312 C 359.035156 131.859375 362.789062 137.648438 366.613281 134.761719 C 368.914062 133.066406 371.167969 130.554688 370.828125 127.460938 Z M 112.492188 49.804688 C 112.917969 50.167969 112.75 50.140625 112.492188 49.804688 Z M 162.582031 57.75 C 162.582031 57.734375 162.582031 57.722656 162.582031 57.710938 C 162.582031 57.722656 162.582031 57.730469 162.582031 57.746094 C 162.582031 57.746094 162.582031 57.746094 162.582031 57.75 Z M 140.789062 154.578125 C 140.800781 155.347656 140.78125 154.929688 140.789062 154.578125 Z M 193.285156 87.632812 C 193.28125 87.617188 193.269531 87.601562 193.265625 87.589844 C 193.519531 87.460938 193.714844 87.453125 193.285156 87.632812 Z M 193.535156 87.476562 C 193.539062 87.476562 193.539062 87.476562 193.542969 87.472656 C 193.664062 87.542969 193.710938 87.582031 193.535156 87.476562 Z M 204.949219 121.804688 C 205.097656 121.96875 205.132812 122.023438 204.949219 121.804688 Z M 222.890625 128.527344 C 220.648438 128.390625 218.402344 128.121094 216.199219 127.660156 C 215.792969 127.578125 215.386719 127.480469 214.984375 127.382812 C 214.875 127.34375 214.121094 127.136719 213.996094 127.097656 C 213.070312 126.808594 212.152344 126.484375 211.261719 126.101562 C 210.503906 125.78125 209.777344 125.410156 209.050781 125.035156 C 208.933594 124.976562 208.863281 124.9375 208.8125 124.917969 C 208.769531 124.886719 208.714844 124.847656 208.632812 124.792969 C 208.320312 124.582031 208.003906 124.382812 207.695312 124.164062 C 207.101562 123.742188 206.535156 123.289062 205.992188 122.808594 C 205.726562 122.574219 205.472656 122.328125 205.222656 122.082031 C 205.117188 121.980469 205.015625 121.871094 204.914062 121.765625 C 204.898438 121.742188 204.882812 121.726562 204.863281 121.699219 C 203.976562 120.589844 203.183594 119.472656 202.480469 118.230469 C 202.433594 118.148438 202.386719 118.0625 202.34375 117.972656 C 202.210938 117.671875 202.074219 117.375 201.945312 117.074219 C 201.691406 116.46875 201.464844 115.851562 201.257812 115.222656 C 201.054688 114.597656 200.875 113.960938 200.71875 113.320312 C 200.636719 113 200.574219 112.679688 200.496094 112.359375 C 200.46875 112.195312 200.4375 112.03125 200.410156 111.867188 C 200.175781 110.484375 200.03125 109.089844 199.941406 107.691406 C 199.773438 105.007812 199.832031 102.316406 199.96875 99.632812 C 199.984375 99.320312 200 99 200.019531 98.6875 C 200.019531 98.65625 200.023438 98.640625 200.023438 98.621094 C 200.027344 98.582031 200.027344 98.542969 200.03125 98.492188 C 200.074219 97.832031 200.121094 97.171875 200.164062 96.511719 C 200.253906 95.136719 200.347656 93.761719 200.417969 92.386719 C 200.601562 88.738281 200.878906 83.871094 197.640625 81.375 C 193.113281 77.890625 187.828125 82.769531 184.808594 85.894531 C 179.859375 91.015625 175.800781 97.039062 171.828125 102.917969 C 166.765625 110.410156 161.964844 118.066406 157.148438 125.714844 C 152.90625 132.453125 148.714844 139.226562 144.207031 145.785156 C 143.28125 147.132812 142.339844 148.480469 141.359375 149.792969 C 141.371094 149.734375 141.378906 149.675781 141.386719 149.621094 C 141.757812 147.285156 142.234375 144.964844 142.757812 142.660156 C 145.253906 131.789062 148.640625 121.839844 152.304688 111.394531 C 156.035156 100.757812 160.015625 90.214844 163.683594 79.558594 C 165.171875 75.238281 166.625 70.898438 167.847656 66.492188 C 168.710938 63.382812 169.5 60.214844 169.625 56.972656 C 169.722656 54.476562 169.066406 51.628906 166.527344 50.550781 C 164.214844 49.574219 161.683594 50.667969 159.730469 51.933594 C 155.5 54.675781 152.285156 59.246094 149.425781 63.304688 C 139.339844 77.628906 131.191406 93.378906 123.027344 108.839844 C 113.660156 126.585938 104.636719 144.515625 95.148438 162.199219 C 91.296875 169.375 87.382812 176.535156 83.140625 183.488281 C 82.925781 183.839844 82.707031 184.1875 82.496094 184.539062 C 82.417969 184.664062 82.339844 184.789062 82.261719 184.914062 C 81.835938 185.585938 81.40625 186.257812 80.96875 186.929688 C 80.199219 188.109375 79.410156 189.285156 78.59375 190.433594 C 77.886719 191.421875 77.144531 192.371094 76.378906 193.296875 C 76.4375 192.945312 76.492188 192.585938 76.558594 192.242188 C 77.441406 187.34375 78.734375 182.515625 80.085938 177.726562 C 80.699219 175.546875 81.339844 173.371094 82 171.195312 C 82.257812 170.355469 82.515625 169.511719 82.777344 168.671875 C 82.890625 168.324219 83 167.980469 83.105469 167.632812 C 82.726562 168.839844 83.101562 167.652344 83.191406 167.378906 C 90.71875 144.300781 99.015625 121.488281 107.449219 98.730469 C 109.910156 92.085938 112.363281 85.433594 114.792969 78.78125 C 116.828125 73.21875 119.171875 67.652344 120.472656 61.851562 C 121.628906 56.707031 122.113281 50.34375 118.785156 45.839844 C 115.644531 41.59375 110.429688 40.5625 105.441406 40.769531 C 99.289062 41.027344 93.160156 43.164062 87.535156 45.527344 C 82.972656 47.441406 78.519531 49.65625 74.171875 52.089844 C 93.050781 26.242188 123.140625 10.6875 155.785156 10.6875 C 211.515625 10.6875 256.855469 56.027344 256.855469 111.757812 C 256.855469 116.121094 256.574219 120.417969 256.039062 124.636719 C 245.011719 126.625 233.835938 129.203125 222.890625 128.527344 Z M 359.773438 127.550781 C 359.996094 127.605469 360.328125 127.703125 359.773438 127.550781 Z M 363.902344 128.007812 C 364.03125 127.558594 363.996094 127.761719 363.902344 128.007812 Z M 363.8125 128.125 C 363.808594 128.132812 363.804688 128.136719 363.800781 128.144531 C 363.804688 128.058594 363.8125 128.066406 363.8125 128.125 Z M 364.152344 129.414062 C 364.269531 129.5 364.25 129.496094 364.152344 129.414062 Z M 364.152344 129.414062 " fill-opacity="1" fill-rule="nonzero"/></g><path fill="#ffffff" d="M 193.183594 87.636719 C 193.144531 87.65625 193.101562 87.683594 193.0625 87.710938 C 193.054688 87.71875 193.050781 87.726562 193.042969 87.730469 C 193.101562 87.707031 193.15625 87.6875 193.203125 87.671875 C 193.199219 87.65625 193.195312 87.648438 193.191406 87.636719 C 193.1875 87.632812 193.183594 87.632812 193.183594 87.636719 Z M 193.183594 87.636719 " fill-opacity="1" fill-rule="nonzero"/><g clip-path="url(#aeaf8fc44b)"><path fill="#ffffff" d="M 145.140625 217.246094 C 145.140625 217.523438 145.113281 217.800781 145.058594 218.078125 C 145.003906 218.351562 144.921875 218.617188 144.8125 218.875 C 144.707031 219.136719 144.574219 219.382812 144.421875 219.613281 C 144.265625 219.847656 144.085938 220.0625 143.890625 220.261719 C 143.691406 220.457031 143.476562 220.636719 143.242188 220.792969 C 143.011719 220.945312 142.765625 221.078125 142.507812 221.183594 C 142.246094 221.292969 141.980469 221.375 141.707031 221.429688 C 141.429688 221.484375 141.152344 221.511719 140.875 221.511719 C 140.59375 221.511719 140.316406 221.484375 140.042969 221.429688 C 139.765625 221.375 139.5 221.292969 139.242188 221.183594 C 138.984375 221.078125 138.738281 220.945312 138.503906 220.792969 C 138.269531 220.636719 138.054688 220.457031 137.855469 220.261719 C 137.660156 220.0625 137.484375 219.847656 137.328125 219.613281 C 137.171875 219.382812 137.039062 219.136719 136.933594 218.875 C 136.824219 218.617188 136.746094 218.351562 136.691406 218.078125 C 136.636719 217.800781 136.609375 217.523438 136.609375 217.246094 C 136.609375 216.964844 136.636719 216.6875 136.691406 216.414062 C 136.746094 216.136719 136.824219 215.871094 136.933594 215.613281 C 137.039062 215.351562 137.171875 215.109375 137.328125 214.875 C 137.484375 214.640625 137.660156 214.425781 137.855469 214.226562 C 138.054688 214.03125 138.269531 213.851562 138.503906 213.699219 C 138.738281 213.542969 138.984375 213.410156 139.242188 213.304688 C 139.5 213.195312 139.765625 213.117188 140.042969 213.0625 C 140.316406 213.007812 140.59375 212.980469 140.875 212.980469 C 141.152344 212.980469 141.429688 213.007812 141.707031 213.0625 C 141.980469 213.117188 142.246094 213.195312 142.507812 213.304688 C 142.765625 213.410156 143.011719 213.542969 143.242188 213.699219 C 143.476562 213.851562 143.691406 214.03125 143.890625 214.226562 C 144.085938 214.425781 144.265625 214.640625 144.421875 214.875 C 144.574219 215.109375 144.707031 215.351562 144.8125 215.613281 C 144.921875 215.871094 145.003906 216.136719 145.058594 216.414062 C 145.113281 216.6875 145.140625 216.964844 145.140625 217.246094 Z M 145.140625 217.246094 " fill-opacity="1" fill-rule="nonzero"/></g><g clip-path="url(#ab959621fb)"><g clip-path="url(#1be8d9b7d9)"><path fill="#ffffff" d="M 195.078125 89.886719 L 198.402344 89.886719 L 198.402344 93.210938 L 195.078125 93.210938 Z M 195.078125 89.886719 " fill-opacity="1" fill-rule="nonzero"/></g></g></svg>